<svg width="35" height="37" viewBox="0 0 35 37" fill="none" xmlns="http://www.w3.org/2000/svg">
<mask id="mask0_4_12256" style="mask-type:alpha" maskUnits="userSpaceOnUse" x="0" y="12" width="25" height="25">
<path fill-rule="evenodd" clip-rule="evenodd" d="M0 12.4063H24.238V36.9471H0V12.4063Z" fill="white"/>
</mask>
<g mask="url(#mask0_4_12256)">
<path fill-rule="evenodd" clip-rule="evenodd" d="M2.08353 14.4908C2.20243 16.9907 2.74699 19.3795 3.64463 21.5844L7.23728 17.863L6.58618 14.4908H2.08353ZM15.1262 33.2378C17.3168 34.1576 19.6932 34.7163 22.1792 34.8377V30.5754L18.5546 29.4951L15.1262 33.2378ZM24.238 36.9472H23.2086C10.4115 36.9472 0 26.4053 0 13.4486V12.4063H8.28162L9.46544 18.5379L4.58552 23.5918C6.54912 27.272 9.54522 30.3081 13.179 32.2982L17.9128 27.1307L24.238 29.0162V36.9472Z" fill="black"/>
</g>
<mask id="mask1_4_12256" style="mask-type:alpha" maskUnits="userSpaceOnUse" x="14" y="0" width="21" height="21">
<path fill-rule="evenodd" clip-rule="evenodd" d="M15.6395 0.521362C14.9137 0.521362 14.3213 1.12066 14.3213 1.85545V19.813C14.3213 20.3398 14.9137 20.6415 15.3306 20.3237L20.6064 16.2901H33.2012C33.9316 16.2901 34.5183 15.6966 34.5183 14.9566V1.85545C34.5183 1.12066 33.9316 0.521362 33.2012 0.521362H15.6395ZM22.572 4.23126C22.572 3.54911 23.1228 2.9915 23.8027 2.9915C24.4769 2.9915 25.0272 3.54911 25.0272 4.23126C25.0272 4.91915 24.4769 5.47676 23.8027 5.47676C23.1228 5.47676 22.572 4.91915 22.572 4.23126ZM22.2375 6.85774H25.4086V11.8293H27.2147V13.8257H21.6255V11.8293H23.4372V8.85418H22.2375V6.85774Z" fill="white"/>
</mask>
<g mask="url(#mask1_4_12256)">
<path fill-rule="evenodd" clip-rule="evenodd" d="M15.6395 0.521362C14.9137 0.521362 14.3213 1.12066 14.3213 1.85545V19.813C14.3213 20.3398 14.9137 20.6415 15.3306 20.3237L20.6064 16.2901H33.2012C33.9316 16.2901 34.5183 15.6966 34.5183 14.9566V1.85545C34.5183 1.12066 33.9316 0.521362 33.2012 0.521362H15.6395ZM22.572 4.23126C22.572 3.54911 23.1228 2.9915 23.8027 2.9915C24.4769 2.9915 25.0272 3.54911 25.0272 4.23126C25.0272 4.91915 24.4769 5.47676 23.8027 5.47676C23.1228 5.47676 22.572 4.91915 22.572 4.23126ZM22.2375 6.85774H25.4086V11.8293H27.2147V13.8257H21.6255V11.8293H23.4372V8.85418H22.2375V6.85774Z" fill="url(#paint0_linear_4_12256)"/>
</g>
<defs>
<linearGradient id="paint0_linear_4_12256" x1="14.3216" y1="20.4536" x2="34.5186" y2="20.4536" gradientUnits="userSpaceOnUse">
<stop stop-color="#FF7200"/>
<stop offset="1" stop-color="#FB9500"/>
</linearGradient>
</defs>
</svg>
