<svg width="191" height="32" viewBox="0 0 191 32" fill="none" xmlns="http://www.w3.org/2000/svg">
<path d="M54.9297 16.0469C54.9297 17.9531 54.4036 19.4219 53.3516 20.4531C52.3047 21.4844 50.8307 22 48.9297 22H45.2344V10.5781H49.1875C51.0208 10.5781 52.4349 11.0469 53.4297 11.9844C54.4297 12.9219 54.9297 14.276 54.9297 16.0469ZM51.7266 16.1562C51.7266 15.1094 51.5182 14.3333 51.1016 13.8281C50.6901 13.3229 50.0625 13.0703 49.2188 13.0703H48.3203V19.4688H49.0078C49.9453 19.4688 50.6328 19.1979 51.0703 18.6562C51.5078 18.1094 51.7266 17.276 51.7266 16.1562ZM59.875 22H56.8203V13.1484H59.875V22ZM56.7422 10.9453C56.7422 10.487 56.8698 10.1458 57.125 9.92188C57.3802 9.69792 57.7917 9.58594 58.3594 9.58594C58.9271 9.58594 59.3411 9.70052 59.6016 9.92969C59.862 10.1589 59.9922 10.4974 59.9922 10.9453C59.9922 11.8411 59.4479 12.2891 58.3594 12.2891C57.2812 12.2891 56.7422 11.8411 56.7422 10.9453ZM68.8438 19.2812C68.8438 20.2292 68.5208 20.9453 67.875 21.4297C67.2292 21.9141 66.3021 22.1562 65.0938 22.1562C64.4375 22.1562 63.8672 22.1198 63.3828 22.0469C62.8984 21.9792 62.4036 21.8516 61.8984 21.6641V19.2188C62.3724 19.4271 62.8906 19.599 63.4531 19.7344C64.0208 19.8698 64.526 19.9375 64.9688 19.9375C65.6302 19.9375 65.9609 19.7865 65.9609 19.4844C65.9609 19.3281 65.8672 19.1901 65.6797 19.0703C65.4974 18.9453 64.9609 18.7057 64.0703 18.3516C63.2578 18.0182 62.6901 17.6406 62.3672 17.2188C62.0443 16.7917 61.8828 16.2526 61.8828 15.6016C61.8828 14.7786 62.2005 14.138 62.8359 13.6797C63.4714 13.2214 64.3698 12.9922 65.5312 12.9922C66.1146 12.9922 66.6615 13.0573 67.1719 13.1875C67.6875 13.3125 68.2214 13.4974 68.7734 13.7422L67.9453 15.7109C67.5391 15.5286 67.1094 15.375 66.6562 15.25C66.2031 15.1198 65.8333 15.0547 65.5469 15.0547C65.0469 15.0547 64.7969 15.1771 64.7969 15.4219C64.7969 15.5729 64.8828 15.7031 65.0547 15.8125C65.2318 15.9167 65.737 16.1328 66.5703 16.4609C67.1901 16.7161 67.651 16.9661 67.9531 17.2109C68.2604 17.4557 68.4844 17.7448 68.625 18.0781C68.7708 18.4062 68.8438 18.8073 68.8438 19.2812ZM74.875 19.7422C75.2865 19.7422 75.7786 19.6406 76.3516 19.4375V21.6641C75.9401 21.8411 75.5469 21.9661 75.1719 22.0391C74.8021 22.1172 74.3672 22.1562 73.8672 22.1562C72.8411 22.1562 72.1016 21.9062 71.6484 21.4062C71.1953 20.901 70.9688 20.1276 70.9688 19.0859V15.4375H69.8984V14.1953L71.2578 13.2344L72.0469 11.375H74.0469V13.1484H76.2188V15.4375H74.0469V18.8828C74.0469 19.4557 74.3229 19.7422 74.875 19.7422ZM83.2422 12.9922C83.5078 12.9922 83.7604 13.013 84 13.0547L84.1719 13.0859L83.8984 15.9688C83.6484 15.9062 83.3021 15.875 82.8594 15.875C82.1927 15.875 81.7083 16.0286 81.4062 16.3359C81.1042 16.638 80.9531 17.0755 80.9531 17.6484V22H77.8984V13.1484H80.1719L80.6484 14.5625H80.7969C81.0521 14.0938 81.4062 13.7161 81.8594 13.4297C82.3177 13.138 82.7786 12.9922 83.2422 12.9922ZM88.4844 22H85.4297V13.1484H88.4844V22ZM85.3516 10.9453C85.3516 10.487 85.4792 10.1458 85.7344 9.92188C85.9896 9.69792 86.401 9.58594 86.9688 9.58594C87.5365 9.58594 87.9505 9.70052 88.2109 9.92969C88.4714 10.1589 88.6016 10.4974 88.6016 10.9453C88.6016 11.8411 88.0573 12.2891 86.9688 12.2891C85.8906 12.2891 85.3516 11.8411 85.3516 10.9453ZM96.0234 12.9922C96.987 12.9922 97.75 13.3958 98.3125 14.2031C98.8802 15.0104 99.1641 16.1276 99.1641 17.5547C99.1641 18.9922 98.8776 20.1198 98.3047 20.9375C97.737 21.75 96.9453 22.1562 95.9297 22.1562C95.6016 22.1562 95.3099 22.1198 95.0547 22.0469C94.7995 21.9792 94.5703 21.8828 94.3672 21.7578C94.1693 21.6328 93.9375 21.4245 93.6719 21.1328H93.4844L93 22H90.6172V9.84375H93.6719V12.5938C93.6719 12.9219 93.6354 13.487 93.5625 14.2891H93.6719C93.9688 13.8307 94.3099 13.5 94.6953 13.2969C95.0859 13.0938 95.5286 12.9922 96.0234 12.9922ZM94.9062 15.3906C94.4792 15.3906 94.1667 15.5391 93.9688 15.8359C93.7708 16.1328 93.6719 16.599 93.6719 17.2344V17.6641C93.6719 18.388 93.7708 18.9089 93.9688 19.2266C94.1667 19.5391 94.4896 19.6953 94.9375 19.6953C95.2969 19.6953 95.5729 19.513 95.7656 19.1484C95.9583 18.7786 96.0547 18.237 96.0547 17.5234C96.0547 16.1016 95.6719 15.3906 94.9062 15.3906ZM107.219 22L106.836 20.8984H106.656C106.401 21.3047 106.044 21.6172 105.586 21.8359C105.133 22.0495 104.599 22.1562 103.984 22.1562C103.01 22.1562 102.253 21.875 101.711 21.3125C101.169 20.7448 100.898 19.9453 100.898 18.9141V13.1484H103.953V17.9844C103.953 18.5625 104.034 19 104.195 19.2969C104.362 19.5938 104.633 19.7422 105.008 19.7422C105.534 19.7422 105.909 19.5365 106.133 19.125C106.357 18.7083 106.469 18.0078 106.469 17.0234V13.1484H109.523V22H107.219ZM115.969 19.7422C116.38 19.7422 116.872 19.6406 117.445 19.4375V21.6641C117.034 21.8411 116.641 21.9661 116.266 22.0391C115.896 22.1172 115.461 22.1562 114.961 22.1562C113.935 22.1562 113.195 21.9062 112.742 21.4062C112.289 20.901 112.062 20.1276 112.062 19.0859V15.4375H110.992V14.1953L112.352 13.2344L113.141 11.375H115.141V13.1484H117.312V15.4375H115.141V18.8828C115.141 19.4557 115.417 19.7422 115.969 19.7422ZM127.445 17.5547C127.445 19.0026 127.055 20.1328 126.273 20.9453C125.497 21.7526 124.409 22.1562 123.008 22.1562C121.664 22.1562 120.594 21.7422 119.797 20.9141C119.005 20.0859 118.609 18.9661 118.609 17.5547C118.609 16.112 118.997 14.9922 119.773 14.1953C120.555 13.3932 121.648 12.9922 123.055 12.9922C123.924 12.9922 124.693 13.1771 125.359 13.5469C126.026 13.9167 126.539 14.4479 126.898 15.1406C127.263 15.8281 127.445 16.6328 127.445 17.5547ZM121.711 17.5547C121.711 18.3151 121.812 18.8958 122.016 19.2969C122.219 19.6927 122.56 19.8906 123.039 19.8906C123.513 19.8906 123.846 19.6927 124.039 19.2969C124.237 18.8958 124.336 18.3151 124.336 17.5547C124.336 16.7995 124.237 16.2292 124.039 15.8438C123.841 15.4583 123.503 15.2656 123.023 15.2656C122.555 15.2656 122.219 15.4583 122.016 15.8438C121.812 16.224 121.711 16.7943 121.711 17.5547ZM134.539 12.9922C134.805 12.9922 135.057 13.013 135.297 13.0547L135.469 13.0859L135.195 15.9688C134.945 15.9062 134.599 15.875 134.156 15.875C133.49 15.875 133.005 16.0286 132.703 16.3359C132.401 16.638 132.25 17.0755 132.25 17.6484V22H129.195V13.1484H131.469L131.945 14.5625H132.094C132.349 14.0938 132.703 13.7161 133.156 13.4297C133.615 13.138 134.076 12.9922 134.539 12.9922ZM149.336 14.2109C149.336 15.487 148.958 16.474 148.203 17.1719C147.453 17.8646 146.385 18.2109 145 18.2109H144.133V22H141.047V10.5781H145C146.443 10.5781 147.526 10.8932 148.25 11.5234C148.974 12.1536 149.336 13.0495 149.336 14.2109ZM144.133 15.6953H144.695C145.159 15.6953 145.526 15.5651 145.797 15.3047C146.073 15.0443 146.211 14.6849 146.211 14.2266C146.211 13.4557 145.784 13.0703 144.93 13.0703H144.133V15.6953ZM159.43 17.5547C159.43 19.0026 159.039 20.1328 158.258 20.9453C157.482 21.7526 156.393 22.1562 154.992 22.1562C153.648 22.1562 152.578 21.7422 151.781 20.9141C150.99 20.0859 150.594 18.9661 150.594 17.5547C150.594 16.112 150.982 14.9922 151.758 14.1953C152.539 13.3932 153.633 12.9922 155.039 12.9922C155.909 12.9922 156.677 13.1771 157.344 13.5469C158.01 13.9167 158.523 14.4479 158.883 15.1406C159.247 15.8281 159.43 16.6328 159.43 17.5547ZM153.695 17.5547C153.695 18.3151 153.797 18.8958 154 19.2969C154.203 19.6927 154.544 19.8906 155.023 19.8906C155.497 19.8906 155.831 19.6927 156.023 19.2969C156.221 18.8958 156.32 18.3151 156.32 17.5547C156.32 16.7995 156.221 16.2292 156.023 15.8438C155.826 15.4583 155.487 15.2656 155.008 15.2656C154.539 15.2656 154.203 15.4583 154 15.8438C153.797 16.224 153.695 16.7943 153.695 17.5547ZM166.523 12.9922C166.789 12.9922 167.042 13.013 167.281 13.0547L167.453 13.0859L167.18 15.9688C166.93 15.9062 166.583 15.875 166.141 15.875C165.474 15.875 164.99 16.0286 164.688 16.3359C164.385 16.638 164.234 17.0755 164.234 17.6484V22H161.18V13.1484H163.453L163.93 14.5625H164.078C164.333 14.0938 164.688 13.7161 165.141 13.4297C165.599 13.138 166.06 12.9922 166.523 12.9922ZM173.031 19.7422C173.443 19.7422 173.935 19.6406 174.508 19.4375V21.6641C174.096 21.8411 173.703 21.9661 173.328 22.0391C172.958 22.1172 172.523 22.1562 172.023 22.1562C170.997 22.1562 170.258 21.9062 169.805 21.4062C169.352 20.901 169.125 20.1276 169.125 19.0859V15.4375H168.055V14.1953L169.414 13.2344L170.203 11.375H172.203V13.1484H174.375V15.4375H172.203V18.8828C172.203 19.4557 172.479 19.7422 173.031 19.7422ZM181.828 22L181.242 20.8281H181.18C180.768 21.3385 180.349 21.6875 179.922 21.875C179.495 22.0625 178.943 22.1562 178.266 22.1562C177.432 22.1562 176.776 21.9062 176.297 21.4062C175.818 20.9062 175.578 20.2031 175.578 19.2969C175.578 18.3542 175.906 17.6536 176.562 17.1953C177.219 16.7318 178.169 16.4714 179.414 16.4141L180.891 16.3672V16.2422C180.891 15.513 180.531 15.1484 179.812 15.1484C179.167 15.1484 178.346 15.3672 177.352 15.8047L176.469 13.7891C177.5 13.2578 178.802 12.9922 180.375 12.9922C181.51 12.9922 182.388 13.2734 183.008 13.8359C183.633 14.3984 183.945 15.1849 183.945 16.1953V22H181.828ZM179.562 20C179.932 20 180.247 19.8828 180.508 19.6484C180.773 19.4141 180.906 19.1094 180.906 18.7344V18.0469L180.203 18.0781C179.198 18.1146 178.695 18.4844 178.695 19.1875C178.695 19.7292 178.984 20 179.562 20ZM189.078 22H186.023V9.84375H189.078V22Z" fill="white"/>
<mask id="mask0_45_7104" style="mask-type:alpha" maskUnits="userSpaceOnUse" x="0" y="0" width="32" height="32">
<path fill-rule="evenodd" clip-rule="evenodd" d="M0 0H32V32H0V0Z" fill="white"/>
</mask>
<g mask="url(#mask0_45_7104)">
<path fill-rule="evenodd" clip-rule="evenodd" d="M31.9999 29.0823V2.91751C31.9999 2.58188 31.942 2.26019 31.837 1.95995C31.4788 0.994898 30.5716 0.213202 29.5444 0.0373469L29.5272 0.03413C29.5229 0.0330577 29.5187 0.0330577 29.5144 0.0319855C29.3728 0.011612 29.2291 -0.000183105 29.0822 -0.000183105H2.91722C1.31307 -0.000183105 -0.000488281 1.31337 -0.000488281 2.91751V29.0823C-0.000488281 29.4169 0.0574155 29.7386 0.163572 30.0399C0.520646 31.0049 1.42781 31.7866 2.45506 31.9625C2.4615 31.9636 2.46686 31.9646 2.47222 31.9646C2.47651 31.9657 2.4808 31.9657 2.48616 31.9668C2.62663 31.9882 2.77139 32 2.91722 32H14.0841L3.43835 18.2941H9.10113L19.7479 32H23.1535L12.5067 18.2941H19.1625C20.3302 18.2941 21.1805 18.0153 21.7649 17.4373C22.3439 16.8626 22.6249 16.0208 22.6249 14.8703C22.6249 13.1943 22.1263 11.4808 18.4204 11.4808H7.21175L3.71501 6.97825H19.3115C21.7724 6.97825 23.7722 7.70633 25.2541 9.14427C26.7436 10.5919 27.4985 12.5423 27.4985 14.9443C27.4985 17.1349 26.8197 18.9482 25.4825 20.3293C24.5175 21.3265 23.2404 22.0299 21.6705 22.4331L28.8163 32H29.0822C30.6864 32 31.9999 30.6865 31.9999 29.0823" fill="#F17D21"/>
</g>
</svg>
