<svg width="33" height="42" viewBox="0 0 33 42" fill="none" xmlns="http://www.w3.org/2000/svg">
<mask id="mask0_4_12257" style="mask-type:alpha" maskUnits="userSpaceOnUse" x="9" y="20" width="24" height="22">
<path fill-rule="evenodd" clip-rule="evenodd" d="M27.1996 20.5562C26.9202 20.5562 26.694 20.7788 26.694 21.0544V23.5156C26.694 23.9188 26.2346 24.1551 25.8993 23.9251L21.6567 21.0072C21.4832 20.8875 21.2522 20.8875 21.0786 21.0067L10.1359 28.5315C9.90547 28.69 9.85065 29.0045 10.0141 29.2303L11.3905 31.1318C11.5523 31.3544 11.8642 31.408 12.0915 31.2515L12.5944 30.905V41.1336C12.5944 41.4092 12.8212 41.6323 13.0996 41.6323H18.569C18.8479 41.6323 19.0742 41.4092 19.0742 41.1336V34.3327C19.0742 34.0571 19.3009 33.8335 19.5803 33.8335H23.1534C23.4323 33.8335 23.659 34.0571 23.659 34.3327V41.1336C23.659 41.4092 23.8852 41.6323 24.1647 41.6323H29.6331C29.9125 41.6323 30.1387 41.4092 30.1387 41.1336V30.905L30.6422 31.2515C30.8695 31.408 31.182 31.3544 31.3427 31.1318L32.7197 29.2303C32.8831 29.0045 32.8282 28.69 32.5972 28.5315L30.3543 26.9885C30.2191 26.8956 30.1382 26.7423 30.1382 26.5795V21.0544C30.1382 20.7788 29.9115 20.5562 29.6326 20.5562H27.1996Z" fill="white"/>
</mask>
<g mask="url(#mask0_4_12257)">
<path fill-rule="evenodd" clip-rule="evenodd" d="M27.1996 20.5562C26.9202 20.5562 26.694 20.7788 26.694 21.0544V23.5156C26.694 23.9188 26.2346 24.1551 25.8993 23.9251L21.6567 21.0072C21.4832 20.8875 21.2522 20.8875 21.0786 21.0067L10.1359 28.5315C9.90547 28.69 9.85065 29.0045 10.0141 29.2303L11.3905 31.1318C11.5523 31.3544 11.8642 31.408 12.0915 31.2515L12.5944 30.905V41.1336C12.5944 41.4092 12.8212 41.6323 13.0996 41.6323H18.569C18.8479 41.6323 19.0742 41.4092 19.0742 41.1336V34.3327C19.0742 34.0571 19.3009 33.8335 19.5803 33.8335H23.1534C23.4323 33.8335 23.659 34.0571 23.659 34.3327V41.1336C23.659 41.4092 23.8852 41.6323 24.1647 41.6323H29.6331C29.9125 41.6323 30.1387 41.4092 30.1387 41.1336V30.905L30.6422 31.2515C30.8695 31.408 31.182 31.3544 31.3427 31.1318L32.7197 29.2303C32.8831 29.0045 32.8282 28.69 32.5972 28.5315L30.3543 26.9885C30.2191 26.8956 30.1382 26.7423 30.1382 26.5795V21.0544C30.1382 20.7788 29.9115 20.5562 29.6326 20.5562H27.1996Z" fill="url(#paint0_linear_4_12257)"/>
</g>
<mask id="mask1_4_12257" style="mask-type:alpha" maskUnits="userSpaceOnUse" x="9" y="0" width="20" height="18">
<path fill-rule="evenodd" clip-rule="evenodd" d="M9.79541 0.524841H28.7518V17.7064H9.79541V0.524841Z" fill="white"/>
</mask>
<g mask="url(#mask1_4_12257)">
<path fill-rule="evenodd" clip-rule="evenodd" d="M11.9244 15.6064H26.6227V2.62472H25.4347V8.1136L19.9887 10.3233V7.94192L14.8923 10.4551V7.94192L11.9244 9.4051V15.6064ZM28.7518 17.7064H9.79541V8.10729L17.0213 4.54412V7.05729L22.1177 4.54412V7.18907L23.3057 6.70659V0.524719H28.7518V17.7064Z" fill="black"/>
</g>
<mask id="mask2_4_12257" style="mask-type:alpha" maskUnits="userSpaceOnUse" x="0" y="0" width="33" height="42">
<path fill-rule="evenodd" clip-rule="evenodd" d="M0 41.6323H32.8137V0.524841H0V41.6323Z" fill="white"/>
</mask>
<g mask="url(#mask2_4_12257)">
<path fill-rule="evenodd" clip-rule="evenodd" d="M13.2266 13.6808H15.957V11.3724H13.2266V13.6808Z" fill="black"/>
<path fill-rule="evenodd" clip-rule="evenodd" d="M17.9082 13.6808H20.6392V11.3724H17.9082V13.6808Z" fill="black"/>
<path fill-rule="evenodd" clip-rule="evenodd" d="M22.5894 13.6808H25.3204V11.3724H22.5894V13.6808Z" fill="black"/>
<path fill-rule="evenodd" clip-rule="evenodd" d="M10.708 35.1196L5.64034 32.2631V34.0691H2.79968C2.42976 34.0691 2.12903 33.7724 2.12903 33.4076V14.7863C2.12903 14.4215 2.42976 14.1248 2.79968 14.1248H8.38306V12.0248H2.79968C1.2556 12.0248 0 13.2633 0 14.7863V33.4076C0 34.9306 1.2556 36.1691 2.79968 36.1691H5.64034V37.9751L10.708 35.1196Z" fill="black"/>
</g>
<defs>
<linearGradient id="paint0_linear_4_12257" x1="3.00534" y1="32.4639" x2="21.4055" y2="50.7479" gradientUnits="userSpaceOnUse">
<stop stop-color="#FF7200"/>
<stop offset="1" stop-color="#FB9500"/>
</linearGradient>
</defs>
</svg>
