<svg width="44" height="44" viewBox="0 0 44 44" fill="none" xmlns="http://www.w3.org/2000/svg">
<mask id="mask0_2316_487" style="mask-type:alpha" maskUnits="userSpaceOnUse" x="13" y="16" width="18" height="13">
<path fill-rule="evenodd" clip-rule="evenodd" d="M27.228 16.2961L19.9881 24.0236L16.5354 20.9509C16.173 20.6282 15.6169 20.6594 15.293 21.0212L14.0555 22.4041C13.7304 22.7677 13.7621 23.3257 14.127 23.6502L18.8949 27.8888L19.6905 28.5928C19.9826 28.8513 20.4269 28.8312 20.694 28.5476L21.4206 27.7752L29.8661 18.7674C30.1986 18.4123 30.1809 17.8538 29.8252 17.5213L28.4728 16.2563C28.3029 16.0968 28.0866 16.018 27.8709 16.018C27.6362 16.018 27.4015 16.1115 27.228 16.2961Z" fill="white"/>
</mask>
<g mask="url(#mask0_2316_487)">
<path fill-rule="evenodd" clip-rule="evenodd" d="M27.228 16.2961L19.9881 24.0236L16.5354 20.9509C16.173 20.6282 15.6169 20.6594 15.293 21.0212L14.0555 22.4041C13.7304 22.7677 13.7621 23.3257 14.127 23.6502L18.8949 27.8888L19.6905 28.5928C19.9826 28.8513 20.4269 28.8312 20.694 28.5476L21.4206 27.7752L29.8661 18.7674C30.1986 18.4123 30.1809 17.8538 29.8252 17.5213L28.4728 16.2563C28.3029 16.0968 28.0866 16.018 27.8709 16.018C27.6362 16.018 27.4015 16.1115 27.228 16.2961Z" fill="url(#paint0_linear_2316_487)"/>
</g>
<path fill-rule="evenodd" clip-rule="evenodd" d="M21.9675 11.0328C15.9016 11.0328 10.9669 15.9675 10.9669 22.034C10.9669 28.1005 15.9016 33.0352 21.9675 33.0352C28.034 33.0352 32.9687 28.1005 32.9687 22.034C32.9687 15.9675 28.034 11.0328 21.9675 11.0328ZM21.9675 35.4797C14.5541 35.4797 8.52246 29.448 8.52246 22.034C8.52246 14.62 14.5541 8.58832 21.9675 8.58832C29.3815 8.58832 35.4132 14.62 35.4132 22.034C35.4132 29.448 29.3815 35.4797 21.9675 35.4797Z" fill="black"/>
<mask id="mask1_2316_487" style="mask-type:alpha" maskUnits="userSpaceOnUse" x="0" y="0" width="44" height="44">
<path fill-rule="evenodd" clip-rule="evenodd" d="M0 0.611267H43.9352V43.4568H0V0.611267Z" fill="white"/>
</mask>
<g mask="url(#mask1_2316_487)">
<path fill-rule="evenodd" clip-rule="evenodd" d="M21.9676 38.0631L26.136 40.2973L28.9239 36.4809L33.6459 36.6783L34.5015 32.0278L38.8459 30.162L37.5998 25.6038L40.6982 22.0343L37.5998 18.4641L38.8459 13.9059L34.5021 12.0408L33.6459 7.38959L28.9233 7.58698L26.136 3.77059L21.9676 6.00481L17.7998 3.77059L15.0119 7.58698L10.2899 7.38959L9.43433 12.0401L5.08994 13.9059L6.336 18.4641L3.23706 22.0343L6.336 25.6038L5.08994 30.162L9.43372 32.0271L10.2893 36.6783L15.0126 36.4809L17.7998 40.2973L21.9676 38.0631ZM26.8559 43.4568L21.9676 40.8369L17.0799 43.4568L13.8087 38.9779L8.26895 39.2089L7.26611 33.7566L2.17067 31.5694L3.63367 26.2198L0 22.0343L3.63367 17.8481L2.17067 12.4985L7.26672 10.3107L8.26956 4.85898L13.8087 5.08998L17.0799 0.611145L21.9676 3.23098L26.8559 0.611145L30.1272 5.08998L35.6663 4.85898L36.6697 10.3113L41.7652 12.4985L40.3022 17.8481L43.9352 22.0343L40.3022 26.2198L41.7652 31.5694L36.6691 33.7572L35.6663 39.2089L30.1272 38.9779L26.8559 43.4568Z" fill="black"/>
</g>
<defs>
<linearGradient id="paint0_linear_2316_487" x1="13.831" y1="28.7744" x2="30.1043" y2="28.7744" gradientUnits="userSpaceOnUse">
<stop stop-color="#FF7200"/>
<stop offset="1" stop-color="#FB9500"/>
</linearGradient>
</defs>
</svg>
