<svg width="51" height="52" viewBox="0 0 51 52" fill="none" xmlns="http://www.w3.org/2000/svg">
<rect width="51" height="51.0463" fill="#FF7701"/>
<path d="M29.0526 36.0312C35.3684 34.4509 39 30.1838 39 24.0204C39 19.2792 37.1053 15.0122 33 15.0122C30.4737 15.0122 28.4211 17.0667 28.4211 19.4372C28.4211 25.2847 34.7368 22.9141 34.7368 27.8133C34.7368 31.6062 32.3684 33.5026 29.0526 34.1348L29.0526 36.0312ZM12.7895 36.0312C19.1053 34.4509 22.5789 30.1838 22.5789 24.0204C22.5789 19.2792 20.8421 15.0122 16.5789 15.0122C14.0526 15.0122 12 17.0667 12 19.4372C12 25.2847 18.3158 22.9141 18.3158 27.8133C18.3158 31.6062 15.9474 33.5026 12.7895 34.1348L12.7895 36.0312Z" fill="white"/>
</svg>
